<svg width="184" height="58" viewBox="0 0 184 58" fill="none" xmlns="http://www.w3.org/2000/svg">
  <path d="M67.864 22.624H67.648C67.504 22.976 67.328 23.312 67.12 23.632C66.912 23.952 66.656 24.24 66.352 24.496C66.048 24.736 65.688 24.928 65.272 25.072C64.872 25.216 64.416 25.288 63.904 25.288C63.088 25.288 62.36 25.096 61.72 24.712C61.096 24.328 60.568 23.768 60.136 23.032C59.704 22.296 59.376 21.4 59.152 20.344C58.944 19.288 58.84 18.096 58.84 16.768C58.84 13.92 59.36 11.744 60.4 10.24C61.44 8.72 63.048 7.96 65.224 7.96C66.088 7.96 66.848 8.08 67.504 8.32C68.16 8.544 68.72 8.872 69.184 9.304C69.664 9.72 70.056 10.224 70.36 10.816C70.664 11.408 70.904 12.064 71.08 12.784L67.72 13.6C67.624 13.248 67.512 12.912 67.384 12.592C67.272 12.256 67.12 11.96 66.928 11.704C66.736 11.448 66.496 11.248 66.208 11.104C65.92 10.944 65.568 10.864 65.152 10.864C64.24 10.864 63.592 11.24 63.208 11.992C62.84 12.744 62.656 13.8 62.656 15.16V17.896C62.656 19.256 62.856 20.344 63.256 21.16C63.672 21.976 64.4 22.384 65.44 22.384C66.256 22.384 66.864 22.144 67.264 21.664C67.664 21.184 67.864 20.568 67.864 19.816V18.592H65.008V16.048H71.08V25H67.864V22.624ZM74.3106 25V8.248H85.0146V11.2H77.9106V15.04H84.7746V17.992H77.9106V22.048H85.0146V25H74.3106ZM93.9813 25.288C91.7413 25.288 90.0853 24.528 89.0133 23.008C87.9573 21.488 87.4293 19.36 87.4293 16.624C87.4293 13.888 87.9573 11.76 89.0133 10.24C90.0853 8.72 91.7413 7.96 93.9813 7.96C96.2213 7.96 97.8693 8.72 98.9253 10.24C99.9973 11.76 100.533 13.888 100.533 16.624C100.533 19.36 99.9973 21.488 98.9253 23.008C97.8693 24.528 96.2213 25.288 93.9813 25.288ZM93.9813 22.384C95.0053 22.384 95.7093 22.008 96.0933 21.256C96.4933 20.488 96.6933 19.424 96.6933 18.064V15.16C96.6933 13.816 96.4933 12.768 96.0933 12.016C95.7093 11.248 95.0053 10.864 93.9813 10.864C92.9573 10.864 92.2453 11.248 91.8453 12.016C91.4613 12.768 91.2693 13.816 91.2693 15.16V18.088C91.2693 19.432 91.4613 20.488 91.8453 21.256C92.2453 22.008 92.9573 22.384 93.9813 22.384Z" fill="black"/>
  <path d="M61.912 37.816H61.744V52H59.92V35.248H62.776L68.488 49.288H68.656V35.248H70.48V52H67.624L61.912 37.816ZM79.5906 52.288C78.5666 52.288 77.6866 52.096 76.9506 51.712C76.2146 51.312 75.6066 50.744 75.1266 50.008C74.6466 49.272 74.2946 48.368 74.0706 47.296C73.8466 46.224 73.7346 45 73.7346 43.624C73.7346 42.264 73.8466 41.048 74.0706 39.976C74.2946 38.888 74.6466 37.976 75.1266 37.24C75.6066 36.504 76.2146 35.944 76.9506 35.56C77.6866 35.16 78.5666 34.96 79.5906 34.96C80.6146 34.96 81.4946 35.16 82.2306 35.56C82.9666 35.944 83.5746 36.504 84.0546 37.24C84.5346 37.976 84.8866 38.888 85.1106 39.976C85.3346 41.048 85.4466 42.264 85.4466 43.624C85.4466 45 85.3346 46.224 85.1106 47.296C84.8866 48.368 84.5346 49.272 84.0546 50.008C83.5746 50.744 82.9666 51.312 82.2306 51.712C81.4946 52.096 80.6146 52.288 79.5906 52.288ZM79.5906 50.536C80.2626 50.536 80.8306 50.408 81.2946 50.152C81.7586 49.88 82.1426 49.504 82.4466 49.024C82.7506 48.544 82.9666 47.968 83.0946 47.296C83.2386 46.608 83.3106 45.84 83.3106 44.992V42.256C83.3106 41.424 83.2386 40.664 83.0946 39.976C82.9666 39.288 82.7506 38.704 82.4466 38.224C82.1426 37.744 81.7586 37.376 81.2946 37.12C80.8306 36.848 80.2626 36.712 79.5906 36.712C78.9186 36.712 78.3506 36.848 77.8866 37.12C77.4226 37.376 77.0386 37.744 76.7346 38.224C76.4306 38.704 76.2066 39.288 76.0626 39.976C75.9346 40.664 75.8706 41.424 75.8706 42.256V44.992C75.8706 45.84 75.9346 46.608 76.0626 47.296C76.2066 47.968 76.4306 48.544 76.7346 49.024C77.0386 49.504 77.4226 49.88 77.8866 50.152C78.3506 50.408 78.9186 50.536 79.5906 50.536ZM92.6133 52L87.6453 35.248H89.7812L92.1573 43.624L93.9573 49.96H94.0773L95.8773 43.624L98.2533 35.248H100.317L95.3493 52H92.6133ZM112.716 52L111.3 47.224H105.42L104.004 52H101.916L107.052 35.248H109.716L114.852 52H112.716ZM108.468 37.384H108.252L105.9 45.472H110.82L108.468 37.384ZM123.771 37V52H121.755V37H116.163V35.248H129.363V37H123.771ZM131.969 52V50.392H136.145V36.856H131.969V35.248H142.337V36.856H138.161V50.392H142.337V52H131.969ZM151.544 52.288C150.52 52.288 149.64 52.096 148.904 51.712C148.168 51.312 147.56 50.744 147.08 50.008C146.6 49.272 146.248 48.368 146.024 47.296C145.8 46.224 145.688 45 145.688 43.624C145.688 42.264 145.8 41.048 146.024 39.976C146.248 38.888 146.6 37.976 147.08 37.24C147.56 36.504 148.168 35.944 148.904 35.56C149.64 35.16 150.52 34.96 151.544 34.96C152.568 34.96 153.448 35.16 154.184 35.56C154.92 35.944 155.528 36.504 156.008 37.24C156.488 37.976 156.84 38.888 157.064 39.976C157.288 41.048 157.4 42.264 157.4 43.624C157.4 45 157.288 46.224 157.064 47.296C156.84 48.368 156.488 49.272 156.008 50.008C155.528 50.744 154.92 51.312 154.184 51.712C153.448 52.096 152.568 52.288 151.544 52.288ZM151.544 50.536C152.216 50.536 152.784 50.408 153.248 50.152C153.712 49.88 154.096 49.504 154.4 49.024C154.704 48.544 154.92 47.968 155.048 47.296C155.192 46.608 155.264 45.84 155.264 44.992V42.256C155.264 41.424 155.192 40.664 155.048 39.976C154.92 39.288 154.704 38.704 154.4 38.224C154.096 37.744 153.712 37.376 153.248 37.12C152.784 36.848 152.216 36.712 151.544 36.712C150.872 36.712 150.304 36.848 149.84 37.12C149.376 37.376 148.992 37.744 148.688 38.224C148.384 38.704 148.16 39.288 148.016 39.976C147.888 40.664 147.824 41.424 147.824 42.256V44.992C147.824 45.84 147.888 46.608 148.016 47.296C148.16 47.968 148.384 48.544 148.688 49.024C148.992 49.504 149.376 49.88 149.84 50.152C150.304 50.408 150.872 50.536 151.544 50.536ZM162.646 37.816H162.478V52H160.654V35.248H163.51L169.222 49.288H169.39V35.248H171.214V52H168.358L162.646 37.816Z" fill="black"/>
  <g opacity="0.902">
  <path fill-rule="evenodd" clip-rule="evenodd" d="M53.0508 28.6872C53.0508 30.246 53.0508 31.8049 53.0508 33.3637C51.8934 42.7476 47.1831 49.7114 38.9198 54.2552C36.1395 55.6274 33.2251 56.5254 30.1769 56.9492C28.0759 56.9492 25.9749 56.9492 23.8739 56.9492C19.336 56.3346 15.2187 54.674 11.522 51.9678C11.6091 50.2682 11.7786 48.5738 12.0303 46.8847C12.1252 46.4641 12.2609 46.0575 12.4369 45.6647C13.7065 43.9588 14.1808 42.061 13.8602 39.9717C13.1961 37.6814 11.6882 36.309 9.33626 35.8544C9.01489 35.7107 8.7099 35.5413 8.4213 35.3461C7.49978 34.3565 6.51705 33.4415 5.47311 32.6012C4.05015 31.7864 2.5591 31.6339 1 32.1437C1 31.1271 1 30.1105 1 29.0939C3.56505 29.4623 5.54745 28.5813 6.94721 26.4507C7.15804 26.2522 7.37831 26.0659 7.60801 25.8915C8.6569 25.4011 9.67352 24.8588 10.6579 24.2649C12.6986 22.3292 13.1221 20.0757 11.9286 17.5044C11.5486 16.7854 11.0234 16.1924 10.3529 15.7253C9.31638 15.1904 8.29977 14.6313 7.30302 14.0479C12.3757 8.1572 18.8144 5.17512 26.6187 5.10166C25.446 6.66287 23.921 7.73032 22.044 8.30401C20.887 8.52477 19.7347 8.76199 18.5875 9.01564C16.7656 9.96434 15.9015 11.4723 15.9951 13.5396C16.6562 16.5051 18.5031 17.8775 21.5357 17.6569C27.0007 16.2594 31.4569 17.8013 34.9042 22.2825C35.6223 23.3741 36.3001 24.4923 36.9374 25.6374C38.1519 27.0974 39.6599 27.5211 41.4613 26.9081C42.8896 26.2262 44.0756 25.2434 45.0195 23.9599C45.8505 23.353 46.613 23.4377 47.3069 24.2141C47.7404 25.2096 48.1131 26.2262 48.4252 27.264C48.927 28.1047 49.6555 28.63 50.6109 28.8397C51.4301 28.8896 52.2434 28.8388 53.0508 28.6872ZM20.2141 21.7742C21.2313 21.7573 22.2479 21.7742 23.2639 21.825C23.4672 21.8928 23.6706 21.9606 23.8739 22.0284C25.2293 22.8078 26.5849 23.5871 27.9403 24.3666C28.2453 24.4344 28.5503 24.4344 28.8553 24.3666C29.6493 24.201 30.4456 24.0485 31.2444 23.9091C32.4387 23.9862 33.3536 24.5283 33.9892 25.5357C34.6811 27.1707 35.3928 28.7973 36.1241 30.4155C36.929 30.8941 37.7253 31.3854 38.5132 31.8896C39.7781 32.9623 40.1001 34.2669 39.4789 35.8035C38.6837 36.7841 37.9383 37.8007 37.2424 38.8534C37.2085 40.1412 37.1746 41.4288 37.1407 42.7166C37.0397 43.2913 36.8025 43.7996 36.4291 44.2415C35.9886 44.682 35.548 45.1226 35.1075 45.5631C34.2942 46.9185 33.4809 48.2741 32.6676 49.6296C31.3478 51.028 29.8737 51.2145 28.2453 50.1887C27.8963 49.8795 27.6083 49.5236 27.3812 49.1213C26.9546 48.0787 26.548 47.0282 26.1613 45.9697C25.5851 43.6654 25.0091 41.3611 24.433 39.0567C24.0541 38.1972 23.6475 37.35 23.2131 36.5152C23.0467 36.2803 22.8264 36.1278 22.5523 36.0577C21.7354 36.0751 20.9221 36.1598 20.1124 36.3119C19.5253 36.3176 18.9831 36.1651 18.4858 35.8544C17.2195 34.8933 15.9826 33.8935 14.7752 32.8554C14.58 32.5667 14.4105 32.2618 14.2668 31.9404C14.1058 30.9992 14.072 30.0504 14.1652 29.0939C14.2728 28.7769 14.4084 28.4719 14.5718 28.1789C15.8845 26.4008 17.1722 24.6048 18.435 22.7908C18.9474 22.2921 19.5403 21.9532 20.2141 21.7742ZM42.478 38.5484C43 38.4392 43.3897 38.6087 43.6471 39.0567C43.9821 40.6979 44.304 42.3414 44.6129 43.9873C44.6012 44.2651 44.5165 44.5192 44.3587 44.7498C43.431 46.3173 42.4653 47.8592 41.4613 49.3754C41.1225 49.5787 40.7836 49.5787 40.4447 49.3754C39.7839 48.7146 39.1231 48.0538 38.4623 47.393C38.3637 47.2127 38.2789 47.0263 38.2082 46.8339C38.5464 45.0746 38.9361 43.3295 39.3773 41.5983C40.4002 40.5584 41.4337 39.5418 42.478 38.5484Z" fill="black"/>
  <path fill-rule="evenodd" clip-rule="evenodd" d="M28.7536 5C38.1463 5.91159 45.2118 10.4186 49.9501 18.521C51.3807 21.1694 52.3126 23.982 52.7458 26.959C52.2359 27.0076 51.7276 27.0754 51.2209 27.1623C50.686 27.1236 50.2624 26.8864 49.9501 26.4507C49.6776 25.3961 49.305 24.3795 48.8318 23.4008C47.4344 21.5561 45.7909 21.302 43.9012 22.6383C43.2235 23.4516 42.478 24.1971 41.6647 24.8749C40.417 25.7177 39.2817 25.599 38.259 24.5191C34.419 16.8976 28.3363 14.0341 20.0107 15.9287C18.2755 15.3438 17.5469 14.1408 17.825 12.3197C18.0306 11.5519 18.488 10.9927 19.1974 10.6422C22.47 10.4454 25.2318 9.17459 27.4829 6.82991C27.9685 6.26017 28.392 5.6502 28.7536 5Z" fill="black"/>
  <path fill-rule="evenodd" clip-rule="evenodd" d="M6.08308 15.4712C7.13089 15.995 8.18139 16.5203 9.2346 17.0469C10.3164 17.8476 10.8586 18.932 10.8612 20.3001C10.8254 21.3883 10.3849 22.2694 9.53958 22.9433C8.6406 23.4437 7.72564 23.9181 6.79472 24.3666C5.98499 24.9177 5.32419 25.6125 4.81231 26.4507C3.74581 27.2507 2.54281 27.5557 1.20332 27.3656C1.84031 22.9776 3.4669 19.0128 6.08308 15.4712Z" fill="black"/>
  <path fill-rule="evenodd" clip-rule="evenodd" d="M20.4174 23.5025C21.3745 23.4601 22.3233 23.5109 23.2639 23.655C24.6783 24.5485 26.1354 25.3618 27.6354 26.0948C28.1437 26.1626 28.652 26.1626 29.1603 26.0948C29.8487 25.9368 30.5434 25.8182 31.2444 25.739C31.7177 25.6877 32.0905 25.8572 32.3626 26.2473C33.0884 27.9163 33.834 29.5768 34.5992 31.2288C34.8195 31.5168 35.0736 31.7709 35.3616 31.9912C36.1241 32.4232 36.8697 32.8807 37.5982 33.3637C38.0786 33.9661 38.1294 34.6099 37.7507 35.2952C36.9604 36.2211 36.2487 37.2038 35.6158 38.2434C35.516 39.7698 35.4143 41.2947 35.3108 42.8182C34.8398 43.3911 34.3315 43.9332 33.7859 44.4448C32.9726 45.8003 32.1593 47.1558 31.346 48.5113C30.6298 49.2749 29.8843 49.3087 29.1095 48.6129C28.6127 47.5516 28.1721 46.4673 27.7879 45.3598C27.2028 43.0024 26.6097 40.6472 26.0088 38.2943C25.5637 36.9965 24.886 35.8442 23.9755 34.8378C22.8791 34.1343 21.7269 34.0326 20.519 34.5328C20.2479 34.6006 19.9769 34.6006 19.7057 34.5328C18.5693 33.7103 17.451 32.8631 16.3509 31.9912C16.1357 31.8153 15.9832 31.5949 15.8934 31.3304C15.8256 30.6866 15.8256 30.0427 15.8934 29.3988C17.1472 27.6028 18.4011 25.8068 19.6549 24.0108C19.9015 23.8123 20.1557 23.6429 20.4174 23.5025Z" fill="black"/>
  <path fill-rule="evenodd" clip-rule="evenodd" d="M2.52493 33.567C3.28843 33.5587 4.00007 33.745 4.65982 34.1261C5.57174 34.9363 6.45281 35.7835 7.30302 36.6677C7.6833 36.9454 8.08995 37.1827 8.52296 37.3793C11.8139 38.0657 12.9152 40.0143 11.827 43.2249C11.2695 44.1704 10.795 45.1531 10.4037 46.1731C10.1634 47.6243 9.96004 49.0815 9.79374 50.5445C4.89467 46.1354 1.99731 40.6457 1.10166 34.0753C1.55889 33.8214 2.03331 33.6521 2.52493 33.567Z" fill="black"/>
  <path fill-rule="evenodd" clip-rule="evenodd" d="M42.173 41.1916C42.2357 41.2029 42.2865 41.2368 42.3255 41.2933C42.5543 42.1992 42.6898 43.1142 42.7321 44.0382C42.1207 45.1267 41.4599 46.1771 40.7497 47.1897C40.4786 46.9864 40.2414 46.7492 40.0381 46.478C40.3195 45.1556 40.6076 43.834 40.9022 42.5132C41.3465 42.086 41.7701 41.6454 42.173 41.1916Z" fill="black"/>
  </g>
  </svg>
  